<svg width="273" height="302" viewBox="0 0 273 302" fill="none" xmlns="http://www.w3.org/2000/svg">
<path d="M88.4963 105.729L98.5815 99.1759C97.9736 97.5313 97.1917 95.8742 96.2322 94.206C92.5378 97.0331 88.0735 99.9603 83.7456 102.799C82.7928 103.423 81.8368 104.051 80.8864 104.678C81.7113 105.622 82.813 106.275 84.0621 106.545C85.6014 106.876 87.1764 106.586 88.4963 105.729Z" fill="#F03B33"/>
<path d="M135.603 239.868C136.486 239.11 142.497 233.89 149.239 226.694C155.917 219.567 164.697 208.99 168.609 199.074C175.619 181.299 192.325 158.223 195.144 154.391L165.769 116.689C165.589 116.457 165.534 116.15 165.624 115.87C171.43 97.655 186.334 49.7929 186.46 44.3623C184.159 40.1146 180.553 37.3291 176.539 36.7088C173.617 36.2574 170.821 37.0841 168.848 38.9776C160.071 54.0871 149.681 87.7557 149.577 88.0949C149.575 88.1022 149.572 88.1111 149.57 88.1184C143.844 105.014 138.722 107.263 136.178 107.101C134.053 106.964 132.432 105.137 131.842 102.212C130.526 95.6821 130.148 78.9836 130.131 78.2762C130.131 78.2575 130.132 78.2377 130.132 78.219C130.747 63.7463 131.446 40.191 130.763 37.3259C127.824 34.0201 123.882 32.5432 119.925 33.2591C116.757 33.8322 114.215 35.729 113.289 38.2095C113.285 38.2217 113.28 38.2338 113.275 38.2458C109.584 46.9641 105.229 79.0366 103.982 88.6587C103.681 90.9832 102.538 93.0686 100.764 94.5277C100.102 95.0726 99.5037 95.4052 98.9557 95.5293C99.5575 96.758 100.068 97.983 100.488 99.201C100.501 99.2337 100.512 99.2675 100.521 99.3006C102.344 104.649 102.418 109.886 100.726 114.94C99.4753 118.68 97.2435 122.327 94.0963 125.776C92.3047 127.74 90.2123 129.644 87.8533 131.462C88.4822 132.705 89.6877 135.529 90.2341 139.781C90.9097 145.039 90.658 153.599 85.6189 164.52C85.4119 164.967 84.8827 165.162 84.4356 164.956C84.3225 164.904 84.2264 164.831 84.1485 164.745C83.9154 164.488 83.8449 164.108 83.9997 163.773C88.8342 153.295 89.1043 145.129 88.4797 140.122C88.0131 136.379 86.9904 133.796 86.3975 132.549C85.923 132.892 85.4402 133.232 84.9462 133.569C78.8774 137.7 73.5468 139.833 73.3226 139.923C72.8647 140.104 72.3471 139.88 72.1654 139.423C71.9835 138.965 72.2075 138.447 72.6652 138.265C72.7184 138.244 78.0661 136.101 83.9767 132.071C89.3782 128.389 96.3757 122.328 99.0365 114.369C100.485 110.035 100.523 105.536 99.1624 100.924L89.4674 107.225C87.7459 108.343 85.6923 108.721 83.6857 108.288C82.1018 107.946 80.6985 107.134 79.6332 105.955C79.5495 105.863 79.4686 105.768 79.3893 105.671C70.735 111.437 62.8939 117.208 62.2903 122.014C61.1538 131.066 56.2248 148.258 52.5236 156.08C50.8866 159.539 51.4205 164.716 54.0677 171.052C56.432 176.712 60.3043 182.869 64.9708 188.391C74.0829 199.173 67.0532 220.457 58.2638 235.407C55.3843 240.304 55.2787 244.497 57.9713 247.205C59.7121 248.957 62.4779 249.969 65.7576 250.053C69.171 250.14 72.7663 249.195 75.8822 247.394C79.3166 245.408 82.3765 244.846 85.2385 245.677C90.9204 247.324 94.439 254.049 98.1648 261.169C98.52 261.847 98.8757 262.527 99.2335 263.203C101.369 267.233 105.435 269.387 110.11 268.968C116.3 268.412 121.655 263.798 123.751 257.213C127.965 243.974 131.916 241.331 135.603 239.868Z" fill="#F39379"/>
<path d="M103.806 89.6164C106.195 87.4504 108.159 83.5733 108.159 83.5733C108.159 83.5733 108.456 81.2877 108.975 74.5601C109.495 67.8325 110.654 59.274 112.85 59.1645C115.046 59.0551 115.78 58.2522 113.824 57.9357C111.868 57.6192 111.606 57.0221 113.699 56.7973C115.791 56.5741 118.582 56.97 116.851 55.8238C115.119 54.6792 112.209 55.9207 112.749 50.9815C113.288 46.0438 115.711 38.4977 120.443 36.5818C123.25 35.4437 123.793 34.1303 123.77 33.2485C122.513 33.0262 121.22 33.0246 119.926 33.258C116.758 33.8315 114.216 35.7287 113.29 38.2094C113.286 38.2208 113.281 38.2322 113.276 38.245C109.585 46.9632 105.23 79.0349 103.983 88.6572C103.941 88.9822 103.881 89.3009 103.806 89.6164Z" fill="#FBC59B"/>
<path d="M123.752 257.213C127.966 243.974 131.916 241.331 135.604 239.869C136.486 239.11 142.498 233.89 149.239 226.694C153.131 222.541 157.735 217.215 161.674 211.533C159.524 204.66 156.641 198.916 152.915 195.158C143.428 185.591 104.398 165.2 104.398 165.2C104.398 165.2 93.194 162.959 96.9645 175.123C100.736 187.287 124.203 199.854 125.076 217.422C125.948 234.989 107.434 228.513 101.739 216.836C96.0442 205.16 91.8256 216.486 80.4616 205.767C70.5438 196.414 69.6438 189.069 58.8756 180.118C60.6716 182.939 62.7289 185.738 64.9713 188.391C74.0833 199.173 67.0533 220.457 58.2638 235.406C55.3849 240.304 55.2794 244.497 57.9719 247.205C59.7128 248.957 62.4785 249.969 65.7578 250.052C69.1718 250.14 72.7662 249.195 75.8824 247.394C76.3742 247.11 76.8577 246.857 77.3333 246.63C89.5404 232.059 101.659 219.648 96.5432 229.463C89.7577 242.485 106.491 225.472 103.507 232.55C100.524 239.63 129.159 232.083 119.346 253.058C115.454 261.38 111.096 265.921 107.173 268.885C108.114 269.028 109.097 269.058 110.11 268.967C116.301 268.412 121.656 263.798 123.752 257.213Z" fill="#D44B50"/>
<path d="M67.8384 184.434C65.3748 180.405 62.3757 179.78 57.737 173.268C53.0977 166.757 63.6278 165.714 69.7049 158.826C75.7819 151.938 70.1538 146.947 66.4047 148.183C62.655 149.42 59.2392 153.483 59.6219 148.756C60.0045 144.029 61.0846 140.688 62.6315 135.325C64.1775 129.963 65.5571 120.649 68.1575 118.297C70.7575 115.945 77.3807 109.815 79.3983 110.354C81.4159 110.893 84.0668 111.902 88.4184 109.565C92.0904 107.592 95.0607 104.572 94.936 103.671L89.467 107.224C87.7455 108.342 85.6919 108.721 83.6852 108.288C82.1008 107.947 80.6982 107.133 79.633 105.954C79.5487 105.863 79.4678 105.768 79.3887 105.671C70.7347 111.436 62.8933 117.207 62.2899 122.013C61.1531 131.066 56.2241 148.258 52.523 156.079C50.8858 159.539 51.4201 164.716 54.0669 171.052C56.1035 175.925 59.2579 181.169 63.0748 186.056C66.916 188.755 69.586 187.294 67.8384 184.434Z" fill="#FBC59B"/>
<path d="M168.849 38.9766C160.072 54.0862 149.682 87.7551 149.578 88.0937C149.575 88.1026 149.573 88.1098 149.57 88.1187C150.795 89.5423 152.573 91.6762 153.649 86.7166C154.726 81.7552 161.003 64.6624 162.053 64.478C163.103 64.2916 169.406 67.4562 168.987 65.9926C168.567 64.5289 165.652 64.4194 163.36 62.8095C161.067 61.1974 162.841 58.2369 165.62 58.8509C168.401 59.4653 171.727 59.3756 168.458 58.3001C165.191 57.2229 163.425 56.0389 164.293 54.0021C165.162 51.9652 168.391 43.6198 171.266 40.8799C173.671 38.5887 179.635 38.6186 181.605 38.7811C180.051 37.6982 178.337 36.9868 176.54 36.708C173.617 36.2569 170.822 37.0839 168.849 38.9766Z" fill="#FBC59B"/>
<path d="M116.114 91.6019C116.114 91.6019 119.519 92.1373 124.581 90.202C126.001 89.6582 128.093 87.8389 130.368 85.3384C130.202 81.5094 130.136 78.5649 130.129 78.276C130.129 78.2568 130.13 78.238 130.129 78.2188C130.745 63.7454 131.444 40.1903 130.761 37.3246C129.797 36.2402 128.723 35.3545 127.578 34.6765C125.536 34.9704 122.708 37.9592 120.378 50.1971C116.316 71.5323 116.114 91.6019 116.114 91.6019Z" fill="#D44B50"/>
<path d="M165.625 115.869C171.43 97.655 186.334 49.7931 186.461 44.3613C186.261 43.9917 186.049 43.633 185.83 43.285C184.252 42.9231 179.373 42.321 176.435 47.746C172.894 54.287 158.926 107.948 158.532 111.434C158.216 114.24 161.03 119.758 165.613 116.369C165.57 116.207 165.571 116.035 165.625 115.869Z" fill="#D44B50"/>
<path d="M110.11 268.968C105.436 269.388 101.369 267.233 99.2342 263.204C98.8764 262.528 98.5206 261.848 98.1655 261.169C94.4396 254.049 90.9209 247.324 85.239 245.677C82.377 244.846 79.317 245.408 75.8827 247.394C72.7666 249.195 69.1715 250.14 65.758 250.053C62.4782 249.969 59.7124 248.958 57.9715 247.205C55.2791 244.497 55.3847 240.304 58.2642 235.407C67.0536 220.457 74.0833 199.173 64.9712 188.391C60.3048 182.869 56.4325 176.712 54.0682 171.052C51.4208 164.716 50.8868 159.539 52.5239 156.08C56.2251 148.258 61.1543 131.066 62.2909 122.013C62.8942 117.207 70.7353 111.437 79.39 105.67C79.4692 105.767 79.55 105.863 79.6342 105.953C80.699 107.134 82.1017 107.947 83.6866 108.287C85.693 108.721 87.7466 108.342 89.4678 107.225L99.1626 100.925C100.524 105.535 100.486 110.035 99.037 114.369C96.3764 122.328 89.3786 128.389 83.9772 132.071C78.0665 136.101 72.7188 138.244 72.6656 138.265C72.2079 138.447 71.9841 138.965 72.1657 139.422C72.3477 139.88 72.8652 140.104 73.3229 139.923C73.5473 139.833 78.8778 137.7 84.9468 133.568C85.4406 133.232 85.9237 132.892 86.3981 132.549C86.9909 133.796 88.0136 136.378 88.4802 140.122C89.1048 145.129 88.8349 153.295 84.0001 163.773C83.8454 164.108 83.916 164.488 84.1491 164.745C84.2268 164.831 84.323 164.904 84.4361 164.956C84.8832 165.162 85.4124 164.967 85.6195 164.52C90.6585 153.599 90.9102 145.038 90.2345 139.781C89.6883 135.529 88.4827 132.705 87.854 131.462C90.2129 129.643 92.3054 127.74 94.0969 125.776C97.2444 122.326 99.4755 118.681 100.727 114.939C102.418 109.885 102.346 104.648 100.522 99.2996C100.513 99.2665 100.501 99.2342 100.488 99.2014C100.068 97.9832 99.5579 96.7583 98.9558 95.5297C99.504 95.4054 100.102 95.0731 100.765 94.5271C102.538 93.0683 103.682 90.983 103.983 88.6578C105.229 79.0361 109.585 46.9637 113.276 38.2445C113.281 38.2324 113.286 38.2201 113.291 38.2079C114.216 35.7278 116.758 33.8322 119.926 33.2588C123.883 32.5416 127.824 34.0201 130.764 37.3239C131.447 40.1902 130.747 63.7457 130.133 78.2175C130.133 78.2381 130.132 78.2563 130.132 78.2751C130.148 78.9844 130.527 95.681 131.843 102.211C132.432 105.137 134.053 106.965 136.179 107.099C138.723 107.263 143.845 105.014 149.571 88.1178C149.573 88.1106 149.576 88.1016 149.578 88.0943C149.682 87.7548 160.072 54.0875 168.849 38.9764C170.822 37.0838 173.618 36.2563 176.539 36.7081C180.554 37.3288 184.161 40.1132 186.462 44.3601C186.335 49.7918 171.43 97.6546 165.624 115.87C165.534 116.15 165.59 116.456 165.771 116.687L195.145 154.39C192.327 158.224 175.622 181.3 168.61 199.074C164.698 208.991 155.917 219.567 149.24 226.695C142.498 233.89 136.485 239.11 135.603 239.868C131.916 241.331 127.966 243.974 123.752 257.213C121.656 263.798 116.302 268.413 110.11 268.968ZM83.7455 102.799C88.0733 99.9603 92.5379 97.0325 96.2321 94.206C97.1909 95.8755 97.9736 97.5311 98.5807 99.1771L88.4964 105.729C87.1757 106.587 85.6008 106.877 84.0623 106.544C82.8128 106.275 81.7109 105.623 80.8858 104.679C81.8369 104.05 82.7923 103.424 83.7455 102.799ZM136.394 241.475C136.485 241.439 136.571 241.389 136.646 241.324C136.711 241.269 143.194 235.755 150.527 227.929C160.402 217.393 167.044 207.904 170.268 199.728C177.812 180.606 196.787 155.166 196.978 154.911C197.219 154.589 197.215 154.145 196.969 153.828L167.466 115.962C168.347 113.191 173.157 98.0281 177.88 82.4819C188.44 47.7171 188.289 44.9811 188.24 44.0826C188.234 43.9536 188.199 43.828 188.139 43.7152C185.578 38.8577 181.448 35.6621 176.812 34.9456C173.286 34.3999 169.897 35.4361 167.514 37.7881C167.459 37.8427 167.41 37.9047 167.371 37.973C158.538 53.1038 148.124 86.7557 147.877 87.5592C143.351 100.911 138.926 105.489 136.293 105.32C135.021 105.24 134.011 103.945 133.591 101.859C132.33 95.6052 131.934 79.0554 131.916 78.2644C131.942 77.6693 132.332 68.3215 132.593 58.7377C133.139 38.6459 132.604 37.1472 132.403 36.5825C132.365 36.4783 132.309 36.3818 132.236 36.2982C128.861 32.4138 124.256 30.663 119.608 31.5041C115.832 32.1864 112.776 34.509 111.626 37.5662C107.848 46.5197 103.468 78.7557 102.215 88.428C101.971 90.3031 101.054 91.9797 99.6318 93.1501C98.9786 93.6881 98.6224 93.7821 98.5024 93.7985C98.3412 93.6655 98.1405 93.5946 97.937 93.5947C97.716 93.2026 97.4844 92.8117 97.245 92.4192C97.1127 92.2006 96.8931 92.0507 96.6429 92.0042C96.3918 91.9594 96.134 92.0229 95.9332 92.1812C92.154 95.1519 87.3821 98.2812 82.7672 101.308C71.742 108.538 61.3278 115.369 60.5217 121.79C59.4026 130.703 54.5529 147.623 50.9121 155.316C49.053 159.245 49.5755 164.923 52.4225 171.74C54.8555 177.562 58.8278 183.885 63.6086 189.542C67.4143 194.044 68.4127 201.248 66.4973 210.377C64.367 220.533 59.4612 229.852 56.7267 234.504C55.0175 237.413 54.1811 240.132 54.2423 242.586C54.2956 244.722 55.0485 246.644 56.4267 248.167C56.5166 248.266 56.6098 248.365 56.7065 248.461C60.9793 252.765 69.7951 252.974 76.7764 248.938C79.7668 247.209 82.3726 246.701 84.7423 247.389C89.6939 248.825 93.0409 255.223 96.5848 261.996C96.9413 262.677 97.2986 263.36 97.6587 264.039C100.141 268.724 104.855 271.23 110.269 270.744C113.446 270.459 116.646 269.122 119.279 266.979C122.136 264.653 124.271 261.464 125.451 257.755C129.819 244.036 133.775 242.495 136.394 241.475Z" fill="#131314"/>
<path d="M211.188 175.125C202.898 165.958 188.693 165.246 179.527 173.537C170.361 181.83 169.65 196.033 177.942 205.2C185.585 213.65 198.252 214.915 207.365 208.567C207.369 208.565 207.371 208.562 207.375 208.56C207.514 208.463 207.651 208.365 207.788 208.264C207.813 208.245 207.838 208.229 207.862 208.21C207.999 208.109 208.136 208.005 208.271 207.901C208.276 207.898 208.28 207.895 208.286 207.89C208.424 207.784 208.561 207.674 208.696 207.562C208.729 207.536 208.763 207.509 208.795 207.482C208.898 207.398 209 207.31 209.102 207.224C209.141 207.193 209.177 207.16 209.215 207.129C209.345 207.017 209.474 206.902 209.603 206.787C209.738 206.665 209.866 206.543 209.996 206.419C210.051 206.369 210.104 206.316 210.158 206.264C210.231 206.196 210.302 206.125 210.374 206.055C210.443 205.985 210.514 205.914 210.582 205.844C210.632 205.793 210.682 205.741 210.73 205.691C210.812 205.606 210.895 205.52 210.974 205.433C211.005 205.4 211.036 205.367 211.066 205.334C211.161 205.232 211.256 205.127 211.348 205.024C211.355 205.015 211.361 205.007 211.369 205C212.835 203.337 214.042 201.472 214.958 199.468C215.005 199.363 215.052 199.257 215.1 199.151C215.109 199.128 215.12 199.105 215.128 199.084C218.506 191.264 217.265 181.841 211.188 175.125Z" fill="#F89F34"/>
<path d="M199.8 177.175C196.927 179.775 196.705 184.209 199.303 187.082C201.901 189.954 206.335 190.176 209.208 187.578C212.081 184.978 212.303 180.544 209.705 177.671C207.107 174.799 202.671 174.578 199.8 177.175Z" fill="#F03B33"/>
<path d="M180.145 194.956C177.272 197.556 177.05 201.99 179.648 204.862C182.246 207.734 186.682 207.956 189.554 205.359C192.426 202.759 192.648 198.325 190.049 195.453C187.452 192.579 183.017 192.358 180.145 194.956Z" fill="#F03B33"/>
<path d="M180.585 186.142C183.185 189.015 187.619 189.238 190.492 186.639C193.365 184.04 193.586 179.607 190.987 176.735C188.389 173.862 183.953 173.64 181.082 176.239C178.21 178.836 177.987 183.271 180.585 186.142Z" fill="#F03B33"/>
<path d="M198.364 205.801C200.963 208.673 205.397 208.894 208.268 206.296C211.141 203.698 211.364 199.264 208.765 196.391C206.167 193.518 201.733 193.297 198.86 195.895C195.987 198.494 195.766 202.928 198.364 205.801Z" fill="#F03B33"/>
<path d="M163.656 181.112C157.948 174.804 148.173 174.313 141.863 180.02C135.553 185.729 135.063 195.504 140.772 201.814C146.478 208.122 156.255 208.613 162.564 202.904C168.872 197.198 169.362 187.421 163.656 181.112Z" fill="#FEF8DF"/>
<path d="M123.13 136.314C117.422 130.004 107.645 129.514 101.337 135.221C95.0277 140.929 94.5384 150.705 100.245 157.014C105.953 163.323 115.728 163.813 122.038 158.106C128.347 152.398 128.836 142.623 123.13 136.314Z" fill="#FEF8DF"/>
<path d="M139.451 203.01C133.082 195.971 133.629 185.066 140.668 178.699C147.705 172.332 158.612 172.878 164.979 179.916C171.346 186.954 170.8 197.861 163.762 204.228C156.723 210.595 145.816 210.048 139.451 203.01ZM147.722 154.851L147.696 154.82L147.669 154.791C144.811 151.632 145.056 146.738 148.215 143.881C151.374 141.023 156.268 141.268 159.125 144.428L159.154 144.459L159.18 144.487C162.038 147.646 161.793 152.54 158.633 155.397C155.474 158.255 150.58 158.01 147.722 154.851ZM98.9241 158.21C92.5582 151.171 93.1033 140.266 100.143 133.899C107.181 127.532 118.087 128.078 124.453 135.118C130.82 142.155 130.273 153.062 123.236 159.429C116.197 165.795 105.292 165.248 98.9241 158.21ZM148.863 119.554L153.382 124.551C155.049 126.392 154.906 129.244 153.065 130.911C151.224 132.574 148.371 132.431 146.707 130.591L142.186 125.595C140.522 123.753 140.664 120.901 142.506 119.237C144.346 117.571 147.198 117.714 148.863 119.554ZM178.381 152.187L182.903 157.185C184.567 159.025 184.424 161.877 182.584 163.542C180.742 165.207 177.891 165.064 176.225 163.224L171.707 158.227C170.042 156.385 170.183 153.533 172.024 151.869C173.864 150.204 176.718 150.346 178.381 152.187ZM176.619 206.395C167.668 196.5 168.436 181.167 178.331 172.217C188.227 163.264 203.561 164.032 212.512 173.928C216.65 178.503 218.709 184.239 218.75 189.969C221.841 185.101 222.491 181.35 222.472 179.013C222.456 176.996 221.951 175.677 221.706 175.156L204.237 155.841L204.248 155.832C204.202 155.794 204.159 155.754 204.117 155.71L178.316 128.791L176.638 126.936L152.458 98.6042L134.859 79.1476C134.368 78.8534 133.106 78.2195 131.098 78.0017C128.774 77.7489 124.977 78.0216 119.825 80.6083C125.523 81.2238 131.024 83.8457 135.162 88.4201C144.114 98.3161 143.346 113.649 133.451 122.601C123.555 131.552 108.221 130.784 99.2693 120.888C92.7428 113.674 91.3851 103.568 94.9621 95.154C82.9542 102.506 59.8815 117.004 51.8779 124.631C46.2821 129.964 42.6062 135.122 40.952 139.962C39.3597 144.621 39.7433 148.737 42.0921 152.195C44.5248 155.776 48.9621 158.292 54.2665 159.1C58.4962 159.743 65.29 159.629 73.6343 155.435C80.0959 152.187 87.7993 153.342 96.5312 158.869C103.455 163.252 110.981 170.26 119.54 180.29C128.665 189.808 134.886 197.998 138.555 205.327C143.182 214.565 143.561 222.346 139.684 228.451C134.677 236.334 133.885 243.082 134.103 247.355C134.376 252.714 136.435 257.38 139.755 260.159C142.961 262.842 147.019 263.635 151.815 262.516C156.795 261.353 162.295 258.211 168.159 253.177C176.547 245.975 193.281 224.467 201.796 213.254C193.065 215.972 183.145 213.611 176.619 206.395Z" fill="#6EB09B"/>
<path d="M199.686 176.07C196.814 178.668 196.592 183.104 199.189 185.977C201.787 188.848 206.223 189.07 209.094 186.472C211.968 183.873 212.189 179.438 209.592 176.566C206.993 173.694 202.558 173.472 199.686 176.07Z" fill="#131314"/>
<path d="M180.034 193.85C177.162 196.449 176.939 200.885 179.538 203.757C182.136 206.63 186.571 206.851 189.443 204.252C192.316 201.655 192.538 197.219 189.94 194.347C187.342 191.474 182.907 191.252 180.034 193.85Z" fill="#131314"/>
<path d="M180.473 185.038C183.071 187.91 187.507 188.134 190.378 185.535C193.251 182.935 193.472 178.502 190.875 175.629C188.277 172.758 183.841 172.534 180.969 175.133C178.096 177.731 177.875 182.165 180.473 185.038Z" fill="#131314"/>
<path d="M198.256 204.694C200.855 207.567 205.288 207.788 208.16 205.191C211.033 202.593 211.255 198.158 208.657 195.285C206.06 192.413 201.625 192.191 198.752 194.789C195.879 197.388 195.658 201.821 198.256 204.694Z" fill="#131314"/>
<path d="M145.048 183.542C140.674 187.5 140.335 194.254 144.294 198.629C148.249 203.003 155.003 203.341 159.378 199.384C163.753 195.427 164.092 188.673 160.133 184.299C156.177 179.924 149.423 179.585 145.048 183.542Z" fill="#131314"/>
<path d="M147.217 185.94C144.166 188.699 143.93 193.409 146.69 196.461C149.45 199.511 154.16 199.747 157.211 196.988C160.261 194.227 160.497 189.517 157.737 186.465C154.978 183.416 150.269 183.18 147.217 185.94Z" fill="#F03B33"/>
<path d="M147.929 189.202C150.3 187.057 153.961 187.24 156.105 189.612C157.13 190.744 157.623 192.17 157.599 193.585C158.378 191.603 158.032 189.265 156.507 187.579C154.362 185.208 150.702 185.026 148.332 187.17C147.093 188.289 146.453 189.824 146.428 191.372C146.745 190.567 147.245 189.821 147.929 189.202Z" fill="#FEF8DF"/>
<path d="M122.231 151.554L119.81 148.878C118.864 147.832 118.945 146.218 119.99 145.273L122.667 142.851C123.712 141.906 123.793 140.291 122.848 139.246L120.183 136.301C119.238 135.256 117.624 135.175 116.579 136.121L113.902 138.542C112.856 139.488 111.242 139.407 110.296 138.361L107.875 135.684C106.929 134.638 105.315 134.558 104.269 135.504L101.326 138.167C100.28 139.113 100.199 140.727 101.144 141.773L103.566 144.45C104.512 145.496 104.431 147.11 103.386 148.055L100.708 150.477C99.663 151.422 99.5816 153.037 100.528 154.081L103.191 157.026C104.138 158.072 105.751 158.153 106.797 157.207L109.474 154.786C110.519 153.839 112.134 153.921 113.079 154.966L115.501 157.643C116.446 158.689 118.06 158.769 119.105 157.824L122.05 155.16C123.096 154.214 123.177 152.6 122.231 151.554Z" fill="#131314"/>
<path d="M143.51 124.397L148.03 129.394C149.034 130.506 150.757 130.592 151.868 129.586C152.98 128.581 153.066 126.859 152.06 125.748L147.541 120.751C146.536 119.64 144.814 119.554 143.702 120.559C142.591 121.564 142.504 123.287 143.51 124.397Z" fill="#F89F34"/>
<path d="M127.705 95.1656C132.936 100.95 132.487 109.911 126.703 115.144C120.919 120.376 111.958 119.927 106.726 114.142C101.494 108.359 101.943 99.3976 107.727 94.1651C113.511 88.9328 122.472 89.3818 127.705 95.1656ZM101.691 88.4853C101.594 88.578 101.498 88.6711 101.403 88.7661C101.373 88.796 101.343 88.8257 101.314 88.8544C101.19 88.9796 101.067 89.1055 100.946 89.2326C100.943 89.2359 100.939 89.2406 100.936 89.244C100.817 89.3687 100.701 89.4944 100.585 89.6222C100.566 89.6438 100.545 89.6668 100.526 89.6884C100.412 89.8154 100.299 89.9429 100.189 90.0715C100.187 90.0737 100.184 90.0772 100.182 90.0795C92.955 98.5131 92.9481 111.243 100.591 119.691C108.883 128.859 123.086 129.571 132.252 121.279C141.42 112.987 142.131 98.7839 133.838 89.6161C127.762 82.8989 118.509 80.7232 110.392 83.3029C110.37 83.3103 110.347 83.3175 110.324 83.3248C110.213 83.3604 110.101 83.3993 109.99 83.4367C107.907 84.1452 105.931 85.1598 104.131 86.4531C104.123 86.4589 104.114 86.466 104.106 86.4718C103.992 86.5536 103.879 86.6372 103.767 86.7212C103.732 86.747 103.696 86.774 103.661 86.8012C103.567 86.8725 103.473 86.9454 103.379 87.0187C103.324 87.0624 103.268 87.1063 103.212 87.1516C103.135 87.2129 103.058 87.2743 102.982 87.3376C102.904 87.4019 102.827 87.4667 102.751 87.5315C102.694 87.5795 102.636 87.6272 102.58 87.6756C102.445 87.7925 102.311 87.9099 102.177 88.0309C102.048 88.1476 101.922 88.2655 101.797 88.3839C101.761 88.4176 101.726 88.4515 101.691 88.4853Z" fill="#F89F34"/>
<path d="M173.029 157.03L177.549 162.028C178.554 163.14 180.277 163.224 181.388 162.22C182.5 161.215 182.586 159.493 181.58 158.381L177.061 153.385C176.054 152.273 174.333 152.186 173.222 153.193C172.11 154.197 172.023 155.92 173.029 157.03Z" fill="#F89F34"/>
<path d="M143.684 121.41C144.795 120.405 146.517 120.492 147.522 121.602L152.043 126.599C152.423 127.02 152.647 127.529 152.719 128.053C152.862 127.252 152.647 126.396 152.061 125.749L147.541 120.752C146.536 119.64 144.815 119.554 143.702 120.559C143.011 121.184 142.717 122.085 142.834 122.946C142.935 122.372 143.22 121.829 143.684 121.41Z" fill="#FEF8DF"/>
<path d="M173.204 154.042C174.314 153.036 176.038 153.123 177.042 154.234L181.562 159.23C181.943 159.653 182.168 160.162 182.238 160.685C182.381 159.884 182.167 159.029 181.581 158.38L177.06 153.384C176.055 152.272 174.334 152.186 173.222 153.192C172.53 153.815 172.236 154.716 172.353 155.576C172.456 155.004 172.74 154.461 173.204 154.042Z" fill="#FEF8DF"/>
<path d="M108.049 112.946C112.622 118.001 120.453 118.391 125.508 113.821C130.563 109.247 130.954 101.416 126.383 96.3613C121.81 91.3061 113.978 90.9137 108.924 95.4866C103.869 100.059 103.477 107.891 108.049 112.946Z" fill="#131314"/>
<path d="M110.043 111.141C113.62 115.095 119.747 115.402 123.701 111.825C127.656 108.249 127.962 102.121 124.385 98.1663C120.809 94.2123 114.682 93.905 110.727 97.4823C106.773 101.06 106.466 107.187 110.043 111.141Z" fill="#F03B33"/>
<path d="M111.204 101.19C114.551 98.1616 119.717 98.421 122.744 101.768C124.19 103.366 124.884 105.38 124.852 107.376C125.954 104.58 125.463 101.28 123.31 98.8997C120.283 95.5531 115.117 95.2936 111.77 98.3206C110.023 99.9023 109.119 102.068 109.084 104.253C109.531 103.117 110.237 102.064 111.204 101.19Z" fill="#FEF8DF"/>
<path d="M221.814 172.191L222.873 171.233C223.127 171.003 223.146 170.61 222.917 170.356L209.644 155.684C209.002 154.973 207.901 154.918 207.19 155.561L206.915 155.809C206.859 155.86 206.8 155.907 206.741 155.95L221.619 172.399C221.681 172.326 221.744 172.257 221.814 172.191Z" fill="#F03B33"/>
<path d="M152.63 95.7982L152.903 95.5517C153.614 94.9081 153.669 93.8071 153.026 93.0961L139.753 78.4236C139.524 78.1701 139.131 78.15 138.876 78.3801L137.819 79.3371C137.746 79.4027 137.671 79.4583 137.592 79.5109L152.471 95.9603C152.52 95.9037 152.574 95.8496 152.63 95.7982Z" fill="#F03B33"/>
<path d="M157.855 145.684L157.83 145.657L157.8 145.624C155.602 143.195 151.839 143.005 149.409 145.203C146.98 147.402 146.791 151.166 148.989 153.594L149.016 153.624L149.043 153.656C151.241 156.084 155.005 156.273 157.434 154.075C159.863 151.878 160.053 148.114 157.855 145.684Z" fill="#F03B33"/>
<path d="M147.54 120.75L152.059 125.747C153.065 126.859 152.978 128.58 151.868 129.586C150.757 130.591 149.033 130.505 148.029 129.394L143.508 124.397C142.503 123.286 142.589 121.563 143.701 120.559C144.813 119.553 146.534 119.639 147.54 120.75ZM142.186 125.594L146.706 130.591C148.371 132.43 151.223 132.573 153.064 130.909C154.904 129.243 155.047 126.391 153.382 124.55L148.862 119.554C147.197 117.713 144.345 117.57 142.504 119.236C140.663 120.9 140.52 123.752 142.186 125.594Z" fill="#131314"/>
<path d="M126.383 96.3625C130.956 101.416 130.564 109.249 125.508 113.821C120.454 118.393 112.623 118.001 108.05 112.946C103.477 107.892 103.87 100.06 108.925 95.4877C113.978 90.9148 121.811 91.3068 126.383 96.3625ZM106.727 114.142C111.959 119.927 120.921 120.376 126.704 115.143C132.489 109.912 132.937 100.949 127.706 95.1665C122.474 89.3817 113.512 88.9332 107.728 94.1651C101.944 99.3971 101.495 108.359 106.727 114.142Z" fill="#131314"/>
<path d="M149.045 153.654L149.019 153.623L148.991 153.594C146.795 151.165 146.982 147.4 149.412 145.203C151.841 143.004 155.605 143.194 157.803 145.623L157.833 145.656L157.857 145.683C160.056 148.113 159.866 151.878 157.436 154.074C155.008 156.272 151.244 156.083 149.045 153.654ZM159.18 144.487L159.155 144.459L159.125 144.427C156.268 141.267 151.375 141.023 148.216 143.88C145.057 146.737 144.812 151.632 147.669 154.79L147.697 154.82L147.723 154.851C150.58 158.008 155.475 158.254 158.633 155.396C161.793 152.539 162.037 147.646 159.18 144.487Z" fill="#131314"/>
<path d="M140.774 201.813C135.066 195.504 135.556 185.729 141.865 180.021C148.175 174.314 157.951 174.804 163.658 181.112C169.364 187.422 168.874 197.198 162.567 202.906C156.257 208.613 146.48 208.123 140.774 201.813ZM164.98 179.916C158.613 172.878 147.707 172.332 140.669 178.699C133.631 185.066 133.084 195.971 139.451 203.011C145.817 210.048 156.724 210.594 163.763 204.228C170.801 197.861 171.347 186.955 164.98 179.916Z" fill="#131314"/>
<path d="M177.061 153.384L181.582 158.381C182.586 159.492 182.501 161.214 181.389 162.219C180.278 163.225 178.554 163.139 177.55 162.027L173.03 157.03C172.024 155.919 172.111 154.196 173.222 153.192C174.334 152.185 176.056 152.272 177.061 153.384ZM171.707 158.227L176.228 163.223C177.893 165.063 180.745 165.206 182.586 163.542C184.426 161.877 184.569 159.025 182.905 157.184L178.383 152.186C176.719 150.347 173.866 150.203 172.026 151.869C170.184 153.534 170.042 156.386 171.707 158.227Z" fill="#131314"/>
<path d="M100.246 157.013C94.5392 150.705 95.0281 140.928 101.338 135.221C107.646 129.514 117.423 130.004 123.131 136.313C128.837 142.623 128.347 152.398 122.038 158.106C115.729 163.812 105.953 163.323 100.246 157.013ZM124.452 135.116C118.086 128.077 107.179 127.532 100.142 133.898C93.1024 140.266 92.5568 151.172 98.9231 158.21C105.29 165.248 116.196 165.794 123.234 159.428C130.273 153.061 130.819 142.155 124.452 135.116Z" fill="#131314"/>
<path d="M202.594 184.466C202.519 184.417 202.412 184.336 202.277 184.217C202.137 184.101 202.012 183.979 201.898 183.852C201.657 183.587 201.523 183.348 201.492 183.135C201.459 182.921 201.589 182.682 201.879 182.423L203.045 181.366C203.129 181.028 203.225 180.658 203.334 180.256C203.441 179.853 203.558 179.45 203.682 179.043C203.808 178.637 203.939 178.245 204.077 177.869C204.214 177.493 204.352 177.163 204.494 176.879C204.665 176.86 204.853 176.876 205.056 176.927C205.261 176.979 205.449 177.1 205.622 177.291C205.825 177.516 205.944 177.74 205.98 177.964C206.015 178.189 205.965 178.48 205.824 178.835L205.029 180.863L205.075 180.914C205.327 180.833 205.555 180.755 205.756 180.683C205.959 180.611 206.16 180.538 206.359 180.462C206.558 180.386 206.766 180.309 206.981 180.229C207.197 180.148 207.446 180.055 207.726 179.948C207.874 180.005 208.017 180.084 208.161 180.184C208.305 180.285 208.43 180.393 208.533 180.508C208.716 180.71 208.817 180.931 208.838 181.168C208.86 181.406 208.764 181.622 208.55 181.814C208.481 181.877 208.384 181.939 208.261 181.998C208.136 182.059 207.927 182.127 207.634 182.203C207.341 182.278 206.934 182.371 206.414 182.479C205.893 182.589 205.207 182.721 204.349 182.876L202.594 184.466Z" fill="#FEF8DF"/>
<path d="M201.447 200.872C201.497 200.974 201.576 201.093 201.683 201.227C201.787 201.361 201.893 201.486 201.997 201.602C202.206 201.833 202.427 201.981 202.661 202.049C202.893 202.114 203.112 202.057 203.314 201.874C203.504 201.702 203.582 201.517 203.549 201.316C203.513 201.116 203.38 200.887 203.146 200.627L202.503 199.918L201.447 200.872ZM203.558 198.962L204.13 199.594C204.354 199.843 204.565 199.98 204.759 200.009C204.951 200.039 205.137 199.972 205.317 199.811C205.472 199.669 205.539 199.494 205.513 199.279C205.487 199.066 205.359 198.83 205.123 198.57C205.045 198.484 204.953 198.386 204.845 198.279C204.737 198.172 204.649 198.092 204.579 198.038L203.558 198.962ZM200.737 202.539C200.647 202.44 200.546 202.321 200.432 202.184C200.317 202.046 200.205 201.899 200.095 201.743C199.985 201.585 199.879 201.426 199.779 201.263C199.681 201.102 199.601 200.941 199.544 200.786C199.377 200.358 199.444 200.009 199.745 199.738L203.787 196.083C203.906 195.974 204.031 195.92 204.158 195.928C204.284 195.933 204.42 195.976 204.563 196.055C204.81 196.189 205.082 196.39 205.379 196.654C205.678 196.92 205.967 197.208 206.25 197.52C206.917 198.257 207.308 198.938 207.42 199.56C207.531 200.184 207.328 200.728 206.809 201.198C206.55 201.433 206.258 201.561 205.934 201.58C205.612 201.6 205.293 201.522 204.975 201.346C205.157 201.707 205.226 202.081 205.188 202.468C205.149 202.854 204.969 203.193 204.645 203.486C204.075 204.002 203.46 204.172 202.803 203.997C202.146 203.821 201.456 203.334 200.737 202.539Z" fill="#FEF8DF"/>
<path d="M185.504 176.146C185.609 176.101 185.727 176.068 185.854 176.048C185.982 176.025 186.115 176.025 186.252 176.043C186.388 176.061 186.525 176.101 186.663 176.166C186.8 176.231 186.926 176.327 187.041 176.454C187.191 176.622 187.283 176.806 187.315 177.009C187.346 177.211 187.32 177.469 187.238 177.785L186.82 179.392L189.189 179.057C189.254 179.081 189.335 179.126 189.43 179.192C189.526 179.257 189.611 179.331 189.684 179.412C189.925 179.676 190.049 179.941 190.057 180.205C190.067 180.472 189.979 180.687 189.795 180.855C189.633 181 189.45 181.088 189.249 181.12C189.045 181.151 188.789 181.176 188.48 181.194L186.584 181.29L185.844 184.522C185.589 184.669 185.33 184.722 185.067 184.682C184.804 184.64 184.557 184.491 184.321 184.23C184.169 184.063 184.082 183.881 184.056 183.684C184.03 183.489 184.06 183.236 184.147 182.925L184.621 181.224L181.99 181.62C181.942 181.579 181.9 181.539 181.86 181.502C181.82 181.464 181.783 181.424 181.746 181.385C181.448 181.056 181.296 180.754 181.288 180.477C181.28 180.202 181.373 179.975 181.571 179.798C181.737 179.646 181.914 179.551 182.104 179.511C182.293 179.471 182.532 179.442 182.819 179.423L184.809 179.274L185.504 176.146Z" fill="#FEF8DF"/>
<path d="M186.069 197.81C185.751 197.948 185.401 198.101 185.012 198.268C184.624 198.437 184.241 198.618 183.861 198.814L184.833 199.887C185.071 199.524 185.301 199.167 185.522 198.815C185.744 198.462 185.941 198.145 186.115 197.861L186.069 197.81ZM186.246 195.762C186.392 195.807 186.581 195.907 186.812 196.059C187.045 196.211 187.253 196.387 187.435 196.588C187.696 196.877 187.884 197.172 188.002 197.468C188.119 197.767 188.117 198.028 187.996 198.253C187.789 198.628 187.543 199.057 187.254 199.538C186.966 200.018 186.665 200.511 186.349 201.016C186.036 201.521 185.723 202.018 185.416 202.506C185.109 202.995 184.835 203.425 184.595 203.799C184.451 203.804 184.293 203.758 184.119 203.664C183.945 203.569 183.772 203.428 183.599 203.236C183.474 203.098 183.38 202.971 183.316 202.856C183.255 202.739 183.218 202.63 183.209 202.527C183.201 202.425 183.217 202.322 183.258 202.217C183.299 202.111 183.354 202 183.427 201.881L183.883 201.187L182.467 199.621C182.252 199.731 182.031 199.846 181.806 199.967C181.579 200.088 181.358 200.204 181.144 200.314C181.042 200.258 180.94 200.195 180.839 200.125C180.737 200.054 180.631 199.955 180.515 199.828C180.25 199.534 180.102 199.269 180.075 199.037C180.048 198.805 180.124 198.608 180.303 198.447C180.384 198.373 180.476 198.312 180.577 198.262C180.679 198.211 180.798 198.15 180.933 198.082C181.125 197.98 181.37 197.862 181.665 197.724C181.96 197.588 182.281 197.442 182.629 197.286C182.975 197.131 183.334 196.972 183.707 196.815C184.077 196.658 184.428 196.51 184.757 196.369C185.086 196.228 185.381 196.105 185.643 195.999C185.904 195.895 186.105 195.815 186.246 195.762Z" fill="#FEF8DF"/>
<path d="M66.6449 128.844C74.0885 122.111 83.6795 115.571 93.5495 109.676C92.5292 104.828 93.0124 99.7394 94.9621 95.1534C82.9546 102.504 59.8811 117.004 51.8774 124.631C46.282 129.963 42.606 135.121 40.9514 139.962C39.3595 144.621 39.7426 148.737 42.0917 152.194C44.5246 155.775 48.9618 158.292 54.2663 159.099C57.0396 159.522 60.9166 159.617 65.6099 158.45C56.1835 152.992 50.4381 143.506 66.6449 128.844Z" fill="#367369"/>
<path d="M131.099 78.0015C128.775 77.7487 124.978 78.022 119.826 80.6095C125.492 81.2214 130.964 83.8178 135.094 88.3454C137.474 87.2815 139.442 86.4286 140.887 85.8101L134.859 79.1486C134.368 78.8545 133.107 78.2198 131.099 78.0015Z" fill="#367369"/>
<path d="M165.435 238.055C172.878 231.321 180.344 222.431 187.197 213.201C191.918 214.7 197.03 214.727 201.787 213.245C193.274 224.459 176.541 245.967 168.152 253.169C162.288 258.204 156.788 261.346 151.807 262.508C147.011 263.626 142.954 262.834 139.748 260.152C136.428 257.373 134.368 252.706 134.095 247.348C133.953 244.545 134.243 240.678 135.873 236.125C140.364 246.05 149.23 252.714 165.435 238.055Z" fill="#367369"/>
<path d="M222.467 179.006C222.486 181.343 221.835 185.093 218.746 189.961C218.704 184.262 216.667 178.559 212.573 173.996C213.871 171.734 214.917 169.861 215.676 168.486L221.704 175.148C221.944 175.667 222.452 176.984 222.467 179.006Z" fill="#367369"/>
<path d="M168.159 253.177C162.294 258.211 156.796 261.353 151.814 262.515C147.018 263.635 142.961 262.842 139.755 260.159C136.436 257.38 134.377 252.714 134.102 247.355C133.886 243.083 134.678 236.334 139.685 228.451C143.561 222.346 143.182 214.565 138.555 205.326C134.886 197.998 128.666 189.809 119.54 180.29C110.982 170.26 103.455 163.252 96.5315 158.869C87.7997 153.342 80.0963 152.188 73.6347 155.436C65.2903 159.629 58.4966 159.743 54.2668 159.1C48.9623 158.292 44.5252 155.776 42.0924 152.195C39.7436 148.737 39.3599 144.621 40.9523 139.962C42.6066 135.122 46.2827 129.963 51.8784 124.63C59.8817 117.004 82.9549 102.505 94.9622 95.1548C91.3853 103.569 92.7428 113.675 99.2698 120.887C108.221 130.784 123.555 131.553 133.451 122.601C143.346 113.649 144.114 98.3166 135.162 88.4197C131.025 83.8454 125.523 81.2231 119.825 80.6094C124.978 78.0211 128.775 77.748 131.099 78.0007C133.107 78.2194 134.368 78.8538 134.859 79.1471L152.459 98.6037L176.639 126.937L178.317 128.79L204.118 155.71C204.159 155.754 204.203 155.794 204.249 155.833L204.238 155.842L221.707 175.156C221.952 175.677 222.457 176.995 222.473 179.013C222.493 181.35 221.842 185.1 218.753 189.969C218.71 184.239 216.65 178.503 212.513 173.928C203.561 164.033 188.228 163.264 178.332 172.217C168.437 181.168 167.669 196.501 176.62 206.396C183.146 213.612 193.065 215.973 201.795 213.254C193.28 224.467 176.547 245.975 168.159 253.177ZM102.581 87.6752C102.638 87.6268 102.695 87.5789 102.752 87.5307C102.829 87.4666 102.906 87.401 102.983 87.3375C103.059 87.275 103.136 87.2132 103.214 87.1513C103.27 87.1062 103.325 87.0625 103.381 87.0176C103.474 86.9451 103.568 86.8731 103.662 86.8013C103.698 86.7736 103.733 86.7474 103.769 86.7212C103.881 86.6365 103.993 86.5536 104.107 86.4713C104.116 86.4648 104.124 86.4596 104.133 86.453C105.932 85.1597 107.908 84.1462 109.992 83.4359C110.103 83.3986 110.214 83.3598 110.326 83.3245C110.348 83.3172 110.371 83.3101 110.393 83.3028C118.511 80.7226 127.763 82.8993 133.839 89.6166C142.132 98.7827 141.421 112.987 132.254 121.278C123.088 129.569 108.884 128.859 100.592 119.692C92.9496 111.242 92.9562 98.5127 100.183 90.0795C100.185 90.077 100.189 90.0731 100.191 90.0706C100.301 89.9422 100.413 89.8148 100.527 89.6881C100.547 89.6669 100.567 89.6442 100.587 89.6217C100.702 89.4954 100.819 89.3683 100.937 89.2437C100.94 89.24 100.944 89.2362 100.947 89.2325C101.068 89.1054 101.191 88.9795 101.315 88.8541C101.344 88.825 101.374 88.7961 101.404 88.7657C101.499 88.6712 101.596 88.5772 101.692 88.4852C101.728 88.4503 101.763 88.4167 101.798 88.3833C101.923 88.2655 102.05 88.1465 102.179 88.0303C102.311 87.9107 102.446 87.7919 102.581 87.6752ZM137.82 79.3387L138.878 78.3812C139.132 78.1509 139.526 78.1707 139.755 78.4252L153.027 93.0959C153.67 93.807 153.616 94.9084 152.904 95.5518L152.631 95.8C152.575 95.8504 152.522 95.9041 152.474 95.9599L137.594 79.5125C137.672 79.46 137.748 79.403 137.82 79.3387ZM206.916 155.809L207.19 155.561C207.9 154.919 209.001 154.975 209.644 155.684L222.916 170.356C223.146 170.611 223.127 171.005 222.872 171.233L221.815 172.191C221.743 172.257 221.679 172.327 221.619 172.398L206.74 155.95C206.8 155.908 206.859 155.861 206.916 155.809ZM215.129 199.084C215.12 199.106 215.11 199.128 215.1 199.15C215.054 199.257 215.006 199.363 214.957 199.468C214.042 201.471 212.836 203.337 211.37 204.999C211.362 205.006 211.356 205.016 211.349 205.023C211.255 205.127 211.161 205.231 211.066 205.335C211.037 205.367 211.005 205.4 210.974 205.432C210.894 205.52 210.812 205.606 210.731 205.691C210.683 205.741 210.632 205.792 210.581 205.844C210.514 205.916 210.445 205.985 210.374 206.055C210.302 206.126 210.23 206.196 210.159 206.264C210.104 206.317 210.052 206.369 209.997 206.42C209.867 206.543 209.737 206.666 209.604 206.787C209.476 206.902 209.346 207.016 209.215 207.129C209.178 207.162 209.141 207.192 209.103 207.224C209 207.31 208.899 207.398 208.796 207.482C208.763 207.509 208.73 207.536 208.698 207.563C208.562 207.674 208.424 207.784 208.285 207.89C208.281 207.895 208.276 207.897 208.271 207.9C208.137 208.006 208 208.108 207.862 208.209C207.839 208.229 207.813 208.246 207.788 208.264C207.651 208.364 207.514 208.463 207.375 208.559C207.372 208.562 207.369 208.565 207.366 208.567C198.252 214.915 185.585 213.65 177.943 205.2C169.651 196.033 170.362 181.831 179.528 173.538C188.694 165.246 202.899 165.958 211.189 175.125C217.266 181.84 218.507 191.264 215.129 199.084ZM207.873 210.377C207.878 210.374 207.886 210.369 207.892 210.364C208.215 210.15 208.534 209.929 208.848 209.699C208.877 209.678 208.905 209.657 208.933 209.635C209.063 209.539 209.193 209.443 209.32 209.343C209.347 209.324 209.371 209.305 209.397 209.286C209.544 209.172 209.689 209.056 209.833 208.938C209.861 208.915 209.889 208.891 209.919 208.868C210.035 208.771 210.151 208.675 210.267 208.576C210.305 208.543 210.344 208.51 210.382 208.477C210.523 208.355 210.663 208.234 210.8 208.109L210.8 208.108C210.942 207.979 211.084 207.847 211.223 207.716C211.28 207.663 211.335 207.606 211.392 207.551C211.472 207.476 211.55 207.401 211.628 207.321C211.702 207.251 211.774 207.176 211.846 207.102C211.9 207.046 211.957 206.99 212.011 206.932C212.097 206.842 212.183 206.754 212.266 206.663C212.3 206.627 212.333 206.591 212.366 206.555C212.467 206.445 212.567 206.335 212.666 206.225C212.67 206.221 212.672 206.217 212.675 206.213C214.193 204.504 215.429 202.625 216.381 200.636C216.406 200.583 216.43 200.531 216.454 200.48C216.494 200.395 216.532 200.311 216.572 200.227C216.619 200.122 216.666 200.018 216.713 199.913C216.733 199.867 216.752 199.823 216.773 199.777C217.638 197.776 218.237 195.656 218.538 193.468C218.941 192.891 219.307 192.357 219.631 191.881C226.446 181.839 223.935 175.573 223.238 174.221L223.254 174.208L223.195 174.141C223.139 174.038 223.101 173.976 223.088 173.954L223.047 173.889L222.995 173.832C222.912 173.74 222.92 173.598 223.01 173.514L224.069 172.557C225.051 171.667 225.13 170.144 224.239 169.161L210.967 154.489C209.664 153.049 207.433 152.937 205.994 154.24L205.719 154.486C205.629 154.568 205.49 154.564 205.405 154.475L179.63 127.585L177.987 125.769L153.806 97.4358C153.727 97.3419 153.737 97.2039 153.828 97.1219L154.102 96.8741C155.541 95.571 155.652 93.3408 154.349 91.9005L141.077 77.2282C140.188 76.2458 138.665 76.1689 137.682 77.0581L136.624 78.0156C136.532 78.0988 136.39 78.0913 136.305 77.9987L136.254 77.9427L136.194 77.895C135.941 77.697 129.871 73.1239 118.011 79.5443C117.509 79.8158 116.941 80.1277 116.322 80.4729C114.115 80.5528 111.946 80.9365 109.869 81.5985C109.821 81.6138 109.774 81.6293 109.727 81.6447C109.619 81.6794 109.51 81.7158 109.401 81.7539C109.313 81.7827 109.226 81.813 109.138 81.8434C109.083 81.8641 109.029 81.8833 108.975 81.9025C106.901 82.6514 104.906 83.6935 103.054 85.0317C103.05 85.0352 103.047 85.0371 103.044 85.0392C102.923 85.1271 102.803 85.2155 102.684 85.3057C102.645 85.3341 102.606 85.3638 102.567 85.3936C102.468 85.4687 102.37 85.544 102.272 85.6213C102.211 85.6691 102.149 85.7187 102.088 85.7683C102.007 85.8323 101.926 85.8977 101.846 85.9636C101.762 86.0329 101.678 86.1042 101.595 86.174C101.535 86.2244 101.475 86.2745 101.415 86.3267C101.269 86.4527 101.125 86.5794 100.982 86.7087C100.844 86.8331 100.708 86.9601 100.573 87.0877C100.537 87.1222 100.5 87.1569 100.463 87.193C100.354 87.297 100.245 87.4029 100.137 87.511C100.112 87.5364 100.086 87.5617 100.06 87.5871C99.9283 87.7197 99.7985 87.8532 99.6702 87.9874C99.6483 88.011 99.6276 88.0333 99.6065 88.0556C99.4946 88.1743 99.3841 88.2936 99.2749 88.4136C99.2514 88.44 99.2284 88.4649 99.205 88.4914C98.9445 88.781 98.6916 89.0761 98.4455 89.3778C98.4413 89.383 98.4372 89.3882 98.4329 89.3933C97.729 90.2577 97.0857 91.1681 96.5081 92.1216C85.4735 98.8291 59.3687 115.029 50.6476 123.341C44.8427 128.872 41.0127 134.271 39.2648 139.385C37.5067 144.53 37.9741 149.306 40.617 153.198C40.9971 153.757 41.4191 154.292 41.8808 154.802C44.7124 157.933 49.0174 160.104 53.9988 160.862C60.432 161.841 67.4984 160.516 74.4355 157.029C80.299 154.082 87.4124 155.208 95.577 160.376C102.353 164.665 109.753 171.563 118.201 181.468L118.218 181.488L118.235 181.506C127.245 190.901 133.371 198.954 136.962 206.125C141.288 214.765 141.698 221.955 138.179 227.494C134.017 234.049 131.991 240.947 132.321 247.445C132.62 253.299 134.911 258.431 138.611 261.526C142.219 264.545 146.924 265.487 152.22 264.253C157.483 263.025 163.236 259.753 169.322 254.53C178.462 246.683 197.19 222.328 204.966 212.019C205.972 211.54 206.943 210.991 207.873 210.377Z" fill="#131314"/>
<path d="M157.979 150.178C157.092 150.98 155.266 150.407 153.9 148.896C152.535 147.386 152.145 145.511 153.033 144.709C153.92 143.906 155.747 144.48 157.112 145.99C158.478 147.501 158.866 149.375 157.979 150.178Z" fill="#FEF8DF"/>
<path d="M165.699 117.05C157.986 124.027 155.621 134.736 158.818 144.108C158.922 144.212 159.025 144.317 159.125 144.429L159.155 144.46L159.18 144.489C160.384 145.818 161.035 147.455 161.15 149.119C162.006 150.537 163.009 151.895 164.164 153.171C166.675 155.949 169.645 158.057 172.847 159.488L171.706 158.228C170.041 156.386 170.184 153.534 172.025 151.869C173.866 150.204 176.718 150.346 178.383 152.187L182.903 157.185C184.055 158.458 184.341 160.218 183.798 161.732C189.7 161.634 195.567 159.497 200.257 155.254C200.875 154.694 201.457 154.111 202.006 153.507L178.316 128.792L176.639 126.937L167.158 115.827C166.661 116.213 166.173 116.621 165.699 117.05Z" fill="#367369"/>
<path d="M165.606 208.572C168.692 205.957 171.763 204.665 174.798 204.118C167.834 194.269 169.169 180.505 178.333 172.215C179.4 171.25 180.53 170.4 181.708 169.66C177.5 170.534 173.576 172.929 170.898 175.833C168.537 178.395 167.066 180.123 165.891 181.012C171.275 188.045 170.447 198.182 163.763 204.227C156.725 210.595 145.818 210.048 139.452 203.01C133.084 195.972 133.632 185.066 140.67 178.698C140.705 178.665 140.745 178.633 140.782 178.599C136.114 179.577 132.886 185.13 130.278 182.121C127.033 178.381 114.331 166.646 119.919 162.984C122.358 161.384 123.757 159.69 124.655 157.984C124.216 158.487 123.745 158.969 123.236 159.428C116.198 165.795 105.294 165.248 98.9259 158.209C94.911 153.772 93.6463 147.797 95.0238 142.39C92.9687 143.584 90.6367 144.864 87.978 146.123C82.6171 148.664 79.4141 151.575 77.5062 154.049C83.1029 152.794 89.4819 154.407 96.5331 158.868C103.456 163.252 110.983 170.26 119.543 180.29C128.667 189.808 134.888 197.998 138.557 205.326C142.19 212.58 143.203 218.934 141.595 224.285C143.29 221.001 144.361 216.342 147.941 215.791C153.311 214.965 158.285 214.776 165.606 208.572Z" fill="#367369"/>
<path d="M146.334 157.443C149.525 160.971 154.97 161.243 158.498 158.053C160.828 155.944 161.737 152.85 161.165 149.976C161.085 151.979 160.234 153.95 158.633 155.397C155.475 158.254 150.58 158.009 147.723 154.851L147.697 154.82L147.67 154.791C145.203 152.063 145.05 148.044 147.087 145.156C147.04 145.199 146.99 145.237 146.944 145.28C143.416 148.47 143.143 153.917 146.334 157.443Z" fill="#367369"/>
<path d="M76.3001 172.299C77.8656 171.173 79.3641 169.956 80.7672 168.63C81.4317 168.001 82.1144 167.356 82.7737 166.693L83.5827 164.958C83.6969 164.758 83.8202 164.57 83.953 164.386C83.8975 164.19 83.907 163.973 83.9994 163.772C88.8343 153.296 89.1049 145.129 88.4794 140.124C88.013 136.379 86.9916 133.796 86.3981 132.549C85.9223 132.893 85.4408 133.232 84.9467 133.569C78.8782 137.7 73.5466 139.835 73.3231 139.924C72.8655 140.105 72.3477 139.88 72.1661 139.423C71.9844 138.965 72.2079 138.447 72.666 138.265C72.7192 138.244 78.066 136.101 83.9777 132.071C89.3786 128.389 96.3761 122.328 99.0374 114.368C100.487 110.035 100.524 105.536 99.1624 100.926L89.4676 107.225C87.7468 108.343 85.6932 108.722 83.6859 108.287C82.1019 107.946 80.6993 107.132 79.6335 105.955C79.5505 105.863 79.4694 105.768 79.3893 105.671C70.7356 111.435 62.8941 117.209 62.2912 122.012C61.1547 131.067 56.2254 148.259 52.524 156.08C50.8872 159.539 51.4212 164.717 54.0686 171.052C55.6307 174.793 57.8523 178.75 60.5259 182.598C65.4534 178.688 71.061 175.762 76.3001 172.299Z" fill="#F39379"/>
<path d="M99.8661 101.156C99.8661 101.156 95.9902 111.476 85.8946 120.609C75.7983 129.743 68.5176 129.329 66.1306 137.143C63.7429 144.959 64.6853 143.642 74.5913 138.297C84.4972 132.952 85.844 142.025 82.6382 151.599C79.4322 161.175 75.3712 165.498 71.0445 168.299C66.7174 171.101 72.3789 174.695 78.8984 169.91C85.4174 165.126 85.8244 164.756 87.141 159.857C88.4575 154.958 90.6049 145.134 89.2555 139.032C87.9061 132.928 86.5323 131.203 86.5323 131.203C86.5323 131.203 91.6623 126.934 92.1212 126.519C92.5802 126.104 95.8217 122.616 98.3401 118.019C100.858 113.424 103.026 106.085 99.8661 101.156Z" fill="#D44B50"/>
<path d="M97.7345 95.1591C97.7345 95.1591 100.082 97.8569 99.1759 99.4179C98.2702 100.979 90.0966 106.24 88.2073 107.023C86.3184 107.804 85.0605 107.737 83.2037 106.867C81.3464 105.998 79.3198 104.071 79.2125 103.895C79.106 103.718 93.8466 94.8747 94.4368 94.5734C95.0283 94.2698 95.8444 93.5311 96.3271 93.6051C96.8103 93.6778 97.7345 95.1591 97.7345 95.1591Z" fill="#DEEEFA"/>
<path d="M83.7449 102.798C88.0718 99.96 92.5373 97.0317 96.2316 94.2062C97.1913 95.8739 97.9725 97.5322 98.5806 99.1762L88.4957 105.728C87.1748 106.586 85.6001 106.876 84.0615 106.544C82.8122 106.274 81.7105 105.623 80.8857 104.677C81.8359 104.051 82.7919 103.423 83.7449 102.798ZM64.9705 188.391C60.3044 182.869 56.4317 176.711 54.0679 171.052C51.4207 164.716 50.8863 159.539 52.5236 156.079C56.225 148.258 61.1542 131.065 62.2906 122.012C62.8937 117.207 70.735 111.435 79.389 105.669C79.4689 105.767 79.5499 105.862 79.6326 105.954C80.6988 107.131 82.1011 107.946 83.6852 108.287C85.6926 108.721 87.7459 108.343 89.467 107.224L99.1617 100.926C100.524 105.536 100.486 110.034 99.0369 114.367C96.3757 122.328 89.3783 128.388 83.9767 132.071C78.0655 136.1 72.7185 138.244 72.6652 138.265C72.2077 138.446 71.9842 138.963 72.1656 139.422C72.347 139.88 72.865 140.104 73.3225 139.923C73.5462 139.834 78.8778 137.699 84.946 133.569C85.4399 133.232 85.922 132.892 86.3976 132.548C86.9909 133.795 88.0125 136.378 88.479 140.123C89.1043 145.128 88.8335 153.296 83.999 163.771C83.8451 164.106 83.9153 164.488 84.1484 164.744C84.2263 164.831 84.3221 164.904 84.4341 164.956C84.8825 165.162 85.4126 164.967 85.6176 164.519C90.6591 153.598 90.9096 145.038 90.2338 139.78C89.6875 135.528 88.4831 132.704 87.8535 131.46C90.212 129.643 92.3043 127.741 94.0961 125.776C97.2446 122.327 99.4735 118.68 100.727 114.938C102.417 109.887 102.345 104.648 100.521 99.2983C100.513 99.265 100.501 99.2328 100.487 99.2011C100.067 97.983 99.5572 96.757 98.9554 95.5281L97.9365 93.595C97.7149 93.2021 97.4845 92.8096 97.2448 92.4172C97.1125 92.2004 96.8929 92.0492 96.6422 92.0033C96.3908 91.9584 96.1333 92.023 95.9327 92.1805C92.1522 95.1519 87.3816 98.2806 82.7668 101.308C71.7415 108.538 61.3266 115.368 60.5208 121.79C59.4013 130.703 54.5523 147.623 50.9113 155.315C49.0526 159.245 49.5748 164.923 52.4218 171.739C54.8546 177.562 58.8273 183.884 63.609 189.541C63.724 189.678 63.836 189.816 63.9463 189.957C64.439 189.671 64.9523 189.364 65.488 189.036C65.3221 188.818 65.1486 188.602 64.9705 188.391Z" fill="#131314"/>
<path d="M200.575 146.121C200.484 145.381 200.166 144.191 199.168 142.717C197.483 140.23 194.022 140.091 193.447 140.454C189.29 143.968 187.649 146.424 187.094 147.419C188.279 150.914 190.84 152.281 191.599 152.437C194.509 151.23 198.573 148.234 200.21 146.983C200.476 146.779 200.616 146.449 200.575 146.121Z" fill="#DEEEFA"/>
<path d="M176.899 142.339L176.747 142.404C174.801 143.235 169.477 142.363 165.392 137.847C165.213 137.649 165.036 137.445 164.863 137.232L164.64 136.96L164.663 136.596C164.763 135 165.44 130.415 169.572 122.364C170.04 121.476 171.393 120.67 173.197 120.204C174.621 119.836 178.295 119.215 181.62 121.397C184.143 123.054 185.449 124.768 186.101 125.913C186.718 127.001 186.713 128.352 186.085 129.441C184.512 132.165 180.482 138.864 177.017 142.223L176.899 142.339ZM187.962 115.772C187.424 115.038 186.854 114.341 186.264 113.688C183.073 110.163 179.245 107.885 176.226 107.836C174.438 107.807 172.944 108.541 171.782 110.021C168.103 114.706 161.451 127.311 162.744 135.221C163.122 137.548 164.182 139.298 165.894 140.422C170.369 143.364 173.577 143.743 175.479 143.544C177.487 143.334 178.464 142.474 178.505 142.438L178.522 142.424L178.532 142.415C185.08 136.869 189.025 131.613 190.257 126.791C191.264 122.854 190.514 119.249 187.962 115.772Z" fill="#F39379"/>
<path d="M184.55 126.794C183.997 125.818 182.869 124.349 180.643 122.889C177.914 121.097 174.839 121.621 173.646 121.931C172.062 122.34 171.273 122.965 171.156 123.187C167.391 130.522 166.625 134.834 166.472 136.374C170.235 140.756 174.761 141.117 175.916 140.807C179.19 137.561 183.028 131.172 184.542 128.549C184.855 128.006 184.857 127.333 184.55 126.794Z" fill="#DEEEFA"/>
<path d="M201.295 148.398C199.562 149.724 195.193 152.941 192.063 154.173L191.908 154.232L191.743 154.234C190.776 154.243 189.103 153.438 187.635 151.816C186.678 150.756 185.808 149.35 185.279 147.592L185.177 147.256L185.332 146.941C185.832 145.925 187.503 143.145 192.309 139.081C193.187 138.353 194.903 138.532 195.408 138.604C196.449 138.752 199.043 139.353 200.645 141.717C201.844 143.485 202.232 144.969 202.347 145.903C202.464 146.856 202.06 147.814 201.295 148.398ZM205.565 136.412C204.705 134.387 203.555 132.578 202.292 131.182C200.98 129.732 199.545 128.726 198.193 128.383C196.883 128.052 195.704 128.323 194.589 129.212C190.973 132.098 183.698 140.434 183.267 146.622C183.141 148.429 183.605 149.859 184.678 150.997C190.01 156.631 193.53 154.834 193.677 154.754L193.706 154.737L193.705 154.739C199.644 151.713 203.559 148.45 205.342 145.041C206.787 142.28 206.86 139.458 205.565 136.412Z" fill="#F39379"/>
<path d="M193.703 154.739L193.704 154.736L193.676 154.755C193.528 154.834 190.008 156.631 184.678 150.997C183.604 149.86 183.14 148.429 183.266 146.622C183.698 140.435 190.972 132.099 194.589 129.212C195.703 128.323 196.881 128.052 198.192 128.383C199.546 128.725 200.978 129.731 202.29 131.182C203.554 132.578 204.703 134.387 205.564 136.412C206.858 139.458 206.786 142.28 205.34 145.041C203.558 148.45 199.644 151.713 193.703 154.739ZM178.531 142.414L178.52 142.423L178.503 142.438C178.463 142.475 177.485 143.334 175.477 143.544C173.575 143.744 170.367 143.364 165.892 140.422C164.18 139.298 163.121 137.547 162.742 135.22C161.449 127.31 168.102 114.705 171.78 110.021C172.941 108.542 174.437 107.806 176.224 107.835C179.243 107.885 183.072 110.161 186.261 113.687C186.852 114.341 187.422 115.038 187.961 115.771C190.512 119.249 191.263 122.854 190.256 126.791C189.023 131.613 185.078 136.869 178.531 142.414ZM207.206 135.716C205.692 132.153 202.539 127.644 198.629 126.654C196.794 126.19 195.011 126.593 193.476 127.818C192.838 128.327 191.959 129.125 190.965 130.137C191.398 129.157 191.739 128.188 191.984 127.233C193.116 122.807 192.246 118.596 189.398 114.716C186.502 110.772 181.322 106.135 176.253 106.053C173.911 106.014 171.88 107.006 170.378 108.92C168.722 111.026 166.011 115.349 163.812 120.593C162.084 124.72 160.188 130.657 160.981 135.507C161.31 137.521 162.07 139.188 163.249 140.494C163.733 141.028 164.288 141.502 164.914 141.912C174.425 148.163 179.288 144.13 179.693 143.765C181.003 142.657 182.212 141.555 183.322 140.464C182.318 142.483 181.623 144.545 181.487 146.499C181.33 148.737 181.93 150.62 183.269 152.1C183.307 152.142 183.344 152.182 183.382 152.223C189.562 158.753 194.091 156.556 194.525 156.322C200.793 153.127 204.965 149.609 206.922 145.867C208.605 142.649 208.701 139.235 207.206 135.716Z" fill="#131314"/>
<path d="M166.47 136.373C166.622 134.835 167.388 130.523 171.155 123.186C171.272 122.964 172.06 122.34 173.643 121.931C174.836 121.622 177.912 121.097 180.641 122.889C182.867 124.349 183.995 125.818 184.549 126.794C184.856 127.334 184.851 128.006 184.539 128.549C183.025 131.171 179.187 137.561 175.914 140.808C174.759 141.117 170.232 140.756 166.47 136.373ZM186.099 125.912C185.449 124.766 184.142 123.053 181.619 121.397C178.293 119.214 174.62 119.835 173.196 120.204C171.392 120.67 170.038 121.476 169.571 122.364C165.439 130.415 164.762 134.999 164.661 136.596L164.64 136.962L164.863 137.232C165.035 137.444 165.211 137.647 165.39 137.845C169.475 142.363 174.799 143.235 176.745 142.404L176.898 142.338L177.016 142.223C180.481 138.865 184.511 132.165 186.084 129.441C186.712 128.352 186.717 127 186.099 125.912Z" fill="#131314"/>
<path d="M200.208 146.982C198.571 148.233 194.507 151.23 191.597 152.436C190.837 152.28 188.276 150.914 187.093 147.419C187.647 146.425 189.288 143.969 193.444 140.454C194.02 140.092 197.481 140.23 199.166 142.717C200.165 144.192 200.483 145.381 200.573 146.121C200.613 146.449 200.473 146.778 200.208 146.982ZM202.344 145.902C202.229 144.969 201.841 143.486 200.642 141.718C199.04 139.352 196.444 138.753 195.404 138.604C194.899 138.532 193.183 138.353 192.305 139.081C187.499 143.145 185.828 145.926 185.329 146.941L185.174 147.257L185.275 147.592C185.803 149.35 186.674 150.757 187.633 151.816C189.1 153.438 190.773 154.243 191.739 154.235L191.906 154.233L192.06 154.173C195.19 152.941 199.558 149.724 201.291 148.398C202.057 147.814 202.46 146.857 202.344 145.902Z" fill="#131314"/>
<path d="M190.66 122.697C190.079 120.455 188.641 117.517 185.138 115.249C178.596 111.015 173.339 114.658 171.766 117.609C170.315 120.335 175.537 117.261 178.052 119.995C179.207 120.199 180.436 120.621 181.619 121.397C184.142 123.052 185.449 124.766 186.099 125.913C186.718 127 186.713 128.352 186.084 129.439C184.512 132.165 180.481 138.864 177.017 142.223L176.898 142.338L176.746 142.405C174.799 143.235 169.476 142.363 165.391 137.847C165.211 137.648 165.035 137.444 164.863 137.232L164.64 136.961L164.662 136.596C164.687 136.204 164.746 135.632 164.882 134.876C164.609 134.169 164.502 132.87 164.783 130.951C165.328 127.22 163.061 129.5 162.579 133.094C162.58 133.832 162.632 134.545 162.742 135.221C163.121 137.547 164.182 139.297 165.893 140.422C170.368 143.364 173.575 143.744 175.478 143.544C177.486 143.334 178.464 142.474 178.503 142.438L178.52 142.423L178.53 142.414C185.079 136.868 189.024 131.612 190.256 126.791C190.616 125.387 190.75 124.025 190.66 122.697Z" fill="#D44B50"/>
<path d="M201.292 148.398C199.559 149.723 195.191 152.941 192.06 154.173L191.906 154.232L191.741 154.234C190.774 154.242 189.101 153.437 187.633 151.816C186.676 150.756 185.805 149.349 185.276 147.592L185.175 147.256L185.329 146.941C185.83 145.925 187.5 143.145 192.307 139.081C193.184 138.353 194.901 138.532 195.405 138.603C196.446 138.752 199.041 139.352 200.643 141.717C201.842 143.485 202.229 144.969 202.344 145.903C202.461 146.856 202.058 147.813 201.292 148.398ZM205.563 136.411C205.13 135.393 204.625 134.431 204.069 133.547C203.354 133.18 202.607 133.369 202.174 135.159C201.161 139.344 200.623 138.44 201.236 140.04C201.849 141.642 200.43 140.073 198.775 138.513C197.119 136.95 193.383 137.201 191.649 139.013C189.915 140.824 186.657 143.565 185.709 145.014C185.031 146.046 183.838 146.468 183.345 145.898C183.308 146.143 183.28 146.385 183.264 146.621C183.139 148.429 183.602 149.859 184.675 150.997C190.008 156.631 193.527 154.834 193.674 154.754L193.704 154.737L193.703 154.739C199.641 151.713 203.556 148.45 205.34 145.04C206.784 142.28 206.857 139.458 205.563 136.411Z" fill="#D44B50"/>
<path d="M63.9444 180.09C62.2318 178.553 60.219 176.754 57.7362 173.268C53.0968 166.757 63.6269 165.715 69.704 158.826C75.7811 151.938 70.1529 146.947 66.4039 148.183C62.6541 149.42 59.2384 153.483 59.621 148.756C60.0036 144.029 61.0837 140.688 62.6306 135.325C64.1767 129.963 65.5562 120.649 68.1566 118.297C70.7566 115.946 77.3798 109.815 79.3975 110.354C81.415 110.893 84.0659 111.902 88.4175 109.565C92.0894 107.592 95.0599 104.572 94.9351 103.671L89.4658 107.224C87.7451 108.343 85.6915 108.721 83.6839 108.288C82.0997 107.947 80.6969 107.133 79.6318 105.954C79.5483 105.864 79.4674 105.768 79.3873 105.671C70.734 111.435 62.8926 117.208 62.2894 122.012C61.1526 131.067 56.2238 148.259 52.5224 156.08C50.8851 159.539 51.4198 164.716 54.0665 171.053C55.6288 174.793 57.8504 178.75 60.5239 182.598C61.6337 181.717 62.7778 180.888 63.9444 180.09Z" fill="#FBC59B"/>
</svg>
