<svg width="33" height="53" viewBox="0 0 33 53" fill="none" xmlns="http://www.w3.org/2000/svg">
<g clip-path="url(#clip0_250_143)">
<path fill-rule="evenodd" clip-rule="evenodd" d="M28.1542 4.48468H5.24057V25.6847H28.1542V4.48468ZM5.24057 1.22314H2.08008V2.85391V4.48468V25.6847V27.3155V28.9462H5.24057H28.1542H31.3146V25.6847V4.48468V1.22314H28.1542H5.24057ZM2.08008 27.3155C2.08008 26.6399 2.61071 26.0924 3.26526 26.0924C3.91982 26.0924 4.45045 26.6399 4.45045 27.3155C4.45045 27.991 3.91982 28.5385 3.26526 28.5385C2.61071 28.5385 2.08008 27.991 2.08008 27.3155ZM2.08008 2.85391C2.08008 2.17843 2.61071 1.63084 3.26526 1.63084C3.91982 1.63084 4.45045 2.17843 4.45045 2.85391C4.45045 3.5294 3.91982 4.07699 3.26526 4.07699C2.61071 4.07699 2.08008 3.5294 2.08008 2.85391ZM29.7344 4.07699C30.389 4.07699 30.9196 3.5294 30.9196 2.85391C30.9196 2.17843 30.389 1.63084 29.7344 1.63084C29.0798 1.63084 28.5492 2.17843 28.5492 2.85391C28.5492 3.5294 29.0798 4.07699 29.7344 4.07699ZM30.9196 27.3155C30.9196 27.991 30.389 28.5385 29.7344 28.5385C29.0798 28.5385 28.5492 27.991 28.5492 27.3155C28.5492 26.6399 29.0798 26.0924 29.7344 26.0924C30.389 26.0924 30.9196 26.6399 30.9196 27.3155Z" fill="white"/>
<path d="M3.26632 4.89235C4.35726 4.89235 5.24163 3.9797 5.24163 2.85389C5.24163 1.72808 4.35726 0.81543 3.26632 0.81543C2.17539 0.81543 1.29102 1.72808 1.29102 2.85389C1.29102 3.9797 2.17539 4.89235 3.26632 4.89235Z" stroke="white" stroke-width="4"/>
<path d="M29.7351 4.89235C30.826 4.89235 31.7104 3.9797 31.7104 2.85389C31.7104 1.72808 30.826 0.81543 29.7351 0.81543C28.6441 0.81543 27.7598 1.72808 27.7598 2.85389C27.7598 3.9797 28.6441 4.89235 29.7351 4.89235Z" stroke="white" stroke-width="4"/>
<path d="M3.26632 29.3538C4.35726 29.3538 5.24163 28.4411 5.24163 27.3153C5.24163 26.1895 4.35726 25.2769 3.26632 25.2769C2.17539 25.2769 1.29102 26.1895 1.29102 27.3153C1.29102 28.4411 2.17539 29.3538 3.26632 29.3538Z" stroke="white" stroke-width="4"/>
<path d="M29.7351 29.3538C30.826 29.3538 31.7104 28.4411 31.7104 27.3153C31.7104 26.1895 30.826 25.2769 29.7351 25.2769C28.6441 25.2769 27.7598 26.1895 27.7598 27.3153C27.7598 28.4411 28.6441 29.3538 29.7351 29.3538Z" stroke="white" stroke-width="4"/>
<path d="M18.5945 22.521H19.353V23.3038H20.87V24.0865H17.8359V23.3038H18.5945V22.521Z" fill="white"/>
<path d="M15.5593 22.521H17.0763V23.3038H16.3178V24.8693H14.8008V23.3038H15.5593V22.521Z" fill="white"/>
<path d="M13.2832 20.1729H15.5587V20.9556H14.0417V21.7384H14.8002V23.3039H13.2832V20.1729Z" fill="white"/>
<path d="M20.8691 19.3896H21.6277V20.1724H20.8691V19.3896Z" fill="white"/>
<path d="M23.9043 17.8242H24.6628V18.607H23.9043V17.8242Z" fill="white"/>
<path d="M11.7656 17.8242H12.5241V18.607H11.7656V17.8242Z" fill="white"/>
<path d="M17.8359 17.0415H18.5945V17.8243H17.8359V17.0415Z" fill="white"/>
<path d="M12.5254 17.0415H13.2839V17.8243H12.5254V17.0415Z" fill="white"/>
<path d="M18.5938 16.2588H20.8693V17.0416H18.5938V16.2588Z" fill="white"/>
<path d="M14.8002 16.2588H17.0758V17.0416H16.3172V18.6071H15.5587V19.3898H13.2832V17.8243H15.5587V17.0416H14.8002V16.2588Z" fill="white"/>
<path d="M11.7656 16.2588H12.5241V17.0416H11.7656V16.2588Z" fill="white"/>
<path d="M10.25 15.4761H11.767V16.2588H11.0085V18.6072H10.25V15.4761Z" fill="white"/>
<path d="M7.2168 15.4761H9.49235V16.2588H7.97532V18.6072H7.2168V15.4761Z" fill="white"/>
<path d="M17.8359 14.6934H18.5945V15.4761H17.8359V14.6934Z" fill="white"/>
<path d="M9.49219 14.6934H10.2507V15.4761H9.49219V14.6934Z" fill="white"/>
<path d="M14.8008 13.9106H15.5593V15.4762H14.8008V13.9106Z" fill="white"/>
<path d="M7.97461 13.9106H9.49161V14.6934H7.97461V13.9106Z" fill="white"/>
<path d="M23.1445 13.1279H23.903V13.9107H23.1445V13.1279Z" fill="white"/>
<path d="M20.1109 13.1279H20.8694V14.6935H23.1449V15.4762H23.9035V17.0417H23.1449V18.6073H23.9035V19.39H26.179V24.8694H20.8694V24.0866H21.6279V23.3038H23.1449V22.5211H22.3865V21.7383H21.6279V22.5211H20.1109V21.7383H17.8354V20.9556H17.0768V21.7383H16.3184V20.1728H17.0768V19.39H16.3184V18.6073H19.3524V17.8245H20.8694V17.0417H21.6279V15.4762H20.1109V14.6935H19.3524V13.9107H20.1109V13.1279ZM22.3865 15.4762V16.259H23.1449V15.4762H22.3865ZM20.1109 18.6073V20.9556H22.3865V18.6073H20.1109ZM18.5939 19.39V20.1728H17.8354V20.9556H19.3524V19.39H18.5939ZM23.1449 19.39V20.1728H23.9035V19.39H23.1449ZM23.9035 20.1728V20.9556H24.662V20.1728H23.9035ZM23.1449 20.9556V21.7383H23.9035V20.9556H23.1449ZM24.662 20.9556V21.7383H25.4205V20.9556H24.662ZM24.662 22.5211V23.3038H23.9035V24.0866H25.4205V22.5211H24.662Z" fill="white"/>
<path d="M14.043 13.1279H14.8015V13.9107H14.043V13.1279Z" fill="white"/>
<path d="M24.6628 12.3447H25.4213V13.1275H26.1799V15.4758H25.4213V16.2586H26.1799V17.8241H25.4213V17.0413H24.6628V15.4758H23.9043V14.693H25.4213V13.9103H24.6628V12.3447Z" fill="white"/>
<path d="M19.3516 12.3447H20.11V13.1275H19.3516V12.3447Z" fill="white"/>
<path d="M13.2832 12.3447H14.0417V13.1275H13.2832V12.3447Z" fill="white"/>
<path d="M20.8691 11.562H24.6617V12.3448H22.3862V13.1276H21.6277V12.3448H20.8691V11.562Z" fill="white"/>
<path d="M14.043 11.562H17.077V12.3448H18.5941V13.1276H19.3526V13.9103H17.8356V14.6931H17.077V15.4758H16.3185V13.9103H15.56V13.1276H14.8015V12.3448H14.043V11.562Z" fill="white"/>
<path d="M8.73242 11.562H12.525V12.3448H11.7665V13.1276H13.2835V14.6931H14.042V16.2586H13.2835V15.4758H11.7665V14.6931H10.2495V13.1276H9.49094V12.3448H8.73242V11.562ZM11.7665 13.9103V14.6931H12.525V13.9103H11.7665Z" fill="white"/>
<path d="M7.2168 11.562H7.97532V13.1276H7.2168V11.562Z" fill="white"/>
<path d="M19.3516 9.99658H20.11V10.7794H19.3516V9.99658Z" fill="white"/>
<path d="M17.8359 9.99658H18.5945V10.7794H19.353V11.5621H17.8359V9.99658Z" fill="white"/>
<path d="M16.3184 9.99658H17.0768V10.7794H16.3184V9.99658Z" fill="white"/>
<path d="M18.5938 9.21387H19.3523V9.99664H18.5938V9.21387Z" fill="white"/>
<path d="M14.0417 5.30029H16.3172V6.08306H15.5587V6.86583H17.0758V5.30029H17.8343V6.08306H18.5928V5.30029H19.3513V6.08306H20.1098V9.21414H19.3513V8.43137H17.8343V7.6486H16.3172V9.99691H15.5587V10.7797H14.8002V9.99691H14.0417V11.5624H13.2832V6.86583H14.0417V7.6486H14.8002V6.08306H14.0417V5.30029ZM17.8343 6.86583V7.6486H18.5928V6.86583H17.8343ZM14.8002 8.43137V9.21414H15.5587V8.43137H14.8002Z" fill="white"/>
<path d="M8.73242 20.9556H11.008V23.3039H8.73242V20.9556Z" fill="white"/>
<path d="M7.2168 19.3896H12.5264V24.869H7.2168V19.3896ZM8.01324 20.2115V24.0471H11.7299V20.2115H8.01324Z" fill="white"/>
<path d="M22.3867 6.86523H24.6623V9.21354H22.3867V6.86523Z" fill="white"/>
<path d="M20.8691 5.2998H26.1787V10.7791H20.8691V5.2998ZM21.6656 6.12171V9.95724H25.3823V6.12171H21.6656Z" fill="white"/>
<path d="M8.73242 6.86523H11.008V9.21354H8.73242V6.86523Z" fill="white"/>
<path d="M7.2168 5.2998H12.5264V10.7791H7.2168V5.2998ZM8.01324 6.12171V9.95724H11.7299V6.12171H8.01324Z" fill="white"/>
<path d="M5.24057 28.9463H2.08008V53.0001H5.24057V28.9463Z" fill="white"/>
<path d="M16.8906 34.9692H17.9766L18.0168 46.6742H20.7116V49.0816H16.8906V34.9692Z" fill="white"/>
<path d="M12.2246 34.9692H13.3106L13.3508 46.6326L16.0456 46.6742V49.0816H12.2246V34.9692Z" fill="white"/>
<path d="M27.0254 34.8447H28.1114L28.1516 34.8862L28.1918 40.9461L28.4734 40.1576L28.7549 39.369L29.0767 38.4973L29.3582 37.6672L29.8811 36.1729L30.3235 34.9277L30.404 34.8447H31.8519L31.8117 35.0522L31.4497 36.0484L30.9671 37.3352L30.3638 38.9539L29.9616 40.0331L29.8409 40.4482L30.2431 42.0669L31.0475 45.2632L31.4899 47.0477L31.9324 48.7909V49.0816H30.5246L30.042 46.9649L29.7604 45.7194L29.2376 43.3951L29.0767 42.6894V42.4819H28.9962L28.8756 42.8969L28.232 44.599L28.1918 44.7234L28.1516 49.0816H27.0254V34.8447Z" fill="white"/>
<path d="M23.1251 34.8447H24.2513L24.4121 35.6749L24.7741 38.0823L25.1763 40.6557L25.5383 42.9801L25.7395 44.3084L25.9808 45.8857L26.3428 48.2516L26.4634 49.04L26.4232 49.0816H25.2568L25.1763 48.7498L24.7741 45.9685V45.8857H22.562L22.5218 46.5083L22.1598 48.9985L22.1195 49.0816H20.9531L20.9933 48.7082L21.4358 45.6782L21.5966 44.6402L21.838 43.0633L22.2402 40.4067L22.6424 37.7087L23.0446 34.9692L23.1251 34.8447ZM23.648 38.3313L23.4871 39.3275L23.3664 40.2822L23.2055 41.3612L22.9642 43.1044V43.4367H24.4121L24.3317 42.731L23.9697 40.2407L23.6882 38.3313H23.648Z" fill="white"/>
<path d="M8.48474 34.5957H8.80652L9.24895 34.7203L9.69138 35.0108V35.0938H9.77181L10.174 35.6334L10.4958 36.256L10.7774 37.0446L11.0187 38.0408L11.2198 39.369L11.3002 40.5312V43.3536L11.1796 44.8478L10.9785 46.0933L10.7371 47.0477L10.4154 47.8782L10.0936 48.4591L9.77181 48.8741L9.3696 49.1648L9.04782 49.2892L8.64561 49.3308L8.16296 49.2476L7.80097 49.0817V48.9985L7.6401 48.9157L7.43897 48.7082L7.15745 48.3348L6.83567 47.7118L6.55411 46.9233L6.31281 45.9273L6.11168 44.5575L6.03125 43.3952V40.6143L6.11168 39.369L6.35303 37.8333L6.63455 36.7541L6.95633 35.9655L7.19767 35.5089L7.39876 35.2183L7.51945 35.0938H7.59988V35.0108L7.88144 34.8033L8.32387 34.6372L8.48474 34.5957ZM8.40431 37.0861L8.16296 37.2522L7.88144 37.5842L7.55966 38.2483L7.35854 38.9955L7.23789 39.7841L7.15745 40.9877V42.9386L7.23789 44.1009L7.39876 45.0141L7.59988 45.7194L7.92166 46.3836L8.00209 46.5083H8.08253V46.5915H8.16296L8.20318 46.7158L8.44452 46.8402L8.7663 46.8818L9.1283 46.7158L9.45003 46.3424L9.77181 45.6782L10.0132 44.6818L10.1338 43.6443L10.174 43.0217V40.8218L10.0936 39.7011L9.93272 38.7879L9.7316 38.1238L9.45003 37.5427L9.32938 37.3767H9.24895V37.2937L8.92717 37.0861H8.40431Z" fill="white"/>
<path d="M23.6479 30.9844H24.8143L24.7741 31.1919L24.3316 32.4371L23.849 33.7654L23.7686 33.8899H23.125L23.1652 33.5578L23.3663 32.3956L23.6077 31.0674L23.6479 30.9844Z" fill="white"/>
</g>
<defs>
<clipPath id="clip0_250_143">
<rect width="32" height="53" fill="white" transform="translate(0.5)"/>
</clipPath>
</defs>
</svg>
